<mxfile host="app.diagrams.net" modified="2021-03-11T12:17:02.573Z" agent="5.0 (Windows NT 10.0; Win64; x64) AppleWebKit/537.36 (KHTML, like Gecko) Chrome/88.0.4324.190 Safari/537.36" etag="CPQLbsajWBMEm78VNZRF" version="14.4.7" type="github" pages="2">
  <diagram name="Page-1" id="e7e014a7-5840-1c2e-5031-d8a46d1fe8dd">
    <mxGraphModel dx="1038" dy="548" grid="1" gridSize="10" guides="1" tooltips="1" connect="1" arrows="1" fold="1" page="1" pageScale="1" pageWidth="1169" pageHeight="826" background="#ffffff" math="0" shadow="0">
      <root>
        <mxCell id="0" />
        <mxCell id="1" parent="0" />
        <mxCell id="2" value="Thread 1" style="swimlane;whiteSpace=wrap" parent="1" vertex="1">
          <mxGeometry x="164.5" y="128" width="280" height="570" as="geometry" />
        </mxCell>
        <mxCell id="5" value="" style="ellipse;shape=startState;fillColor=#000000;strokeColor=#ff0000;" parent="2" vertex="1">
          <mxGeometry x="100" y="40" width="30" height="30" as="geometry" />
        </mxCell>
        <mxCell id="6" value="" style="edgeStyle=elbowEdgeStyle;elbow=horizontal;verticalAlign=bottom;endArrow=open;endSize=8;strokeColor=#FF0000;endFill=1;rounded=0" parent="2" source="5" target="7" edge="1">
          <mxGeometry x="100" y="40" as="geometry">
            <mxPoint x="115" y="110" as="targetPoint" />
          </mxGeometry>
        </mxCell>
        <mxCell id="7" value="idle" style="" parent="2" vertex="1">
          <mxGeometry x="60" y="110" width="110" height="50" as="geometry" />
        </mxCell>
        <mxCell id="8" value="user action" style="" parent="2" vertex="1">
          <mxGeometry x="60" y="220" width="110" height="50" as="geometry" />
        </mxCell>
        <mxCell id="9" value="" style="endArrow=open;strokeColor=#FF0000;endFill=1;rounded=0" parent="2" source="7" target="8" edge="1">
          <mxGeometry relative="1" as="geometry" />
        </mxCell>
        <mxCell id="10" value="post command" style="" parent="2" vertex="1">
          <mxGeometry x="60" y="325" width="110" height="50" as="geometry" />
        </mxCell>
        <mxCell id="11" value="" style="endArrow=open;strokeColor=#FF0000;endFill=1;rounded=0" parent="2" source="8" target="10" edge="1">
          <mxGeometry relative="1" as="geometry" />
        </mxCell>
        <mxCell id="12" value="" style="edgeStyle=elbowEdgeStyle;elbow=horizontal;strokeColor=#FF0000;endArrow=open;endFill=1;rounded=0" parent="2" source="10" target="7" edge="1">
          <mxGeometry width="100" height="100" relative="1" as="geometry">
            <mxPoint x="160" y="290" as="sourcePoint" />
            <mxPoint x="260" y="190" as="targetPoint" />
            <Array as="points">
              <mxPoint x="30" y="250" />
            </Array>
          </mxGeometry>
        </mxCell>
        <mxCell id="3" value="Thread 2" style="swimlane;whiteSpace=wrap" parent="1" vertex="1">
          <mxGeometry x="444.5" y="128" width="280" height="570" as="geometry" />
        </mxCell>
        <mxCell id="13" value="" style="ellipse;shape=startState;fillColor=#000000;strokeColor=#ff0000;" parent="3" vertex="1">
          <mxGeometry x="60" y="40" width="30" height="30" as="geometry" />
        </mxCell>
        <mxCell id="14" value="" style="edgeStyle=elbowEdgeStyle;elbow=horizontal;verticalAlign=bottom;endArrow=open;endSize=8;strokeColor=#FF0000;endFill=1;rounded=0" parent="3" source="13" target="15" edge="1">
          <mxGeometry x="40" y="20" as="geometry">
            <mxPoint x="55" y="90" as="targetPoint" />
          </mxGeometry>
        </mxCell>
        <mxCell id="15" value="idle" style="" parent="3" vertex="1">
          <mxGeometry x="20" y="110" width="110" height="50" as="geometry" />
        </mxCell>
        <mxCell id="16" value="check for &#xa;new commands" style="" parent="3" vertex="1">
          <mxGeometry x="20" y="220" width="110" height="50" as="geometry" />
        </mxCell>
        <mxCell id="17" value="" style="endArrow=open;strokeColor=#FF0000;endFill=1;rounded=0" parent="3" source="15" target="16" edge="1">
          <mxGeometry relative="1" as="geometry" />
        </mxCell>
        <mxCell id="18" value="command queue" style="" parent="3" vertex="1">
          <mxGeometry x="20" y="325" width="110" height="50" as="geometry" />
        </mxCell>
        <mxCell id="19" value="" style="endArrow=open;strokeColor=#FF0000;endFill=1;rounded=0" parent="3" source="16" target="18" edge="1">
          <mxGeometry relative="1" as="geometry" />
        </mxCell>
        <mxCell id="21" value="queue empty" style="rhombus;fillColor=#ffffc0;strokeColor=#ff0000;" parent="3" vertex="1">
          <mxGeometry x="150" y="225" width="80" height="40" as="geometry" />
        </mxCell>
        <mxCell id="22" value="yes" style="edgeStyle=elbowEdgeStyle;elbow=horizontal;align=left;verticalAlign=bottom;endArrow=open;endSize=8;strokeColor=#FF0000;exitX=0.5;exitY=0;endFill=1;rounded=0;entryX=0.75;entryY=0.5;entryPerimeter=0" parent="3" source="21" target="25" edge="1">
          <mxGeometry x="-1" relative="1" as="geometry">
            <mxPoint x="160" y="150" as="targetPoint" />
            <Array as="points">
              <mxPoint x="190" y="180" />
            </Array>
          </mxGeometry>
        </mxCell>
        <mxCell id="23" value="no" style="edgeStyle=elbowEdgeStyle;elbow=horizontal;align=left;verticalAlign=top;endArrow=open;endSize=8;strokeColor=#FF0000;endFill=1;rounded=0" parent="3" source="21" target="30" edge="1">
          <mxGeometry x="-1" relative="1" as="geometry">
            <mxPoint x="190" y="305" as="targetPoint" />
          </mxGeometry>
        </mxCell>
        <mxCell id="24" value="" style="endArrow=open;strokeColor=#FF0000;endFill=1;rounded=0" parent="3" source="16" target="21" edge="1">
          <mxGeometry relative="1" as="geometry" />
        </mxCell>
        <mxCell id="25" value="" style="shape=line;strokeWidth=6;strokeColor=#ff0000;rotation=90" parent="3" vertex="1">
          <mxGeometry x="130" y="127.5" width="50" height="15" as="geometry" />
        </mxCell>
        <mxCell id="26" value="" style="edgeStyle=elbowEdgeStyle;elbow=horizontal;verticalAlign=bottom;endArrow=open;endSize=8;strokeColor=#FF0000;endFill=1;rounded=0" parent="3" source="25" target="15" edge="1">
          <mxGeometry x="130" y="90" as="geometry">
            <mxPoint x="230" y="140" as="targetPoint" />
          </mxGeometry>
        </mxCell>
        <mxCell id="30" value="dispatch&#xa;command&#xa;worker thread" style="" parent="3" vertex="1">
          <mxGeometry x="140" y="325" width="110" height="50" as="geometry" />
        </mxCell>
        <mxCell id="31" value="critical&#xa;section" style="shape=note;whiteSpace=wrap;size=17" parent="3" vertex="1">
          <mxGeometry x="105" y="490" width="100" height="50" as="geometry" />
        </mxCell>
        <mxCell id="32" value="" style="endArrow=none;strokeColor=#FF0000;endFill=0;rounded=0;dashed=1" parent="3" source="18" target="31" edge="1">
          <mxGeometry relative="1" as="geometry" />
        </mxCell>
        <mxCell id="34" value="" style="whiteSpace=wrap;strokeColor=#FF0000;fillColor=#FF0000" parent="3" vertex="1">
          <mxGeometry x="245" y="395" width="5" height="45" as="geometry" />
        </mxCell>
        <mxCell id="41" value="" style="edgeStyle=elbowEdgeStyle;elbow=horizontal;entryX=0;entryY=0.5;strokeColor=#FF0000;endArrow=open;endFill=1;rounded=0" parent="3" source="30" target="34" edge="1">
          <mxGeometry width="100" height="100" relative="1" as="geometry">
            <mxPoint x="60" y="480" as="sourcePoint" />
            <mxPoint x="160" y="380" as="targetPoint" />
            <Array as="points">
              <mxPoint x="195" y="400" />
            </Array>
          </mxGeometry>
        </mxCell>
        <mxCell id="4" value="Thread 3" style="swimlane;whiteSpace=wrap" parent="1" vertex="1">
          <mxGeometry x="724.5" y="128" width="280" height="570" as="geometry" />
        </mxCell>
        <mxCell id="33" value="process&#xa;command" style="" parent="4" vertex="1">
          <mxGeometry x="90" y="405" width="110" height="50" as="geometry" />
        </mxCell>
        <mxCell id="35" value="" style="edgeStyle=elbowEdgeStyle;elbow=horizontal;strokeColor=#FF0000;endArrow=open;endFill=1;rounded=0;entryX=0.25;entryY=0.5;entryPerimeter=0" parent="4" target="25" edge="1">
          <mxGeometry width="100" height="100" relative="1" as="geometry">
            <mxPoint x="-30" y="410" as="sourcePoint" />
            <mxPoint x="-120" y="120" as="targetPoint" />
            <Array as="points">
              <mxPoint x="-10" y="135" />
            </Array>
          </mxGeometry>
        </mxCell>
        <mxCell id="37" value="" style="edgeStyle=none;strokeColor=#FF0000;endArrow=open;endFill=1;rounded=0" parent="4" target="33" edge="1">
          <mxGeometry width="100" height="100" relative="1" as="geometry">
            <mxPoint x="-30" y="429.5" as="sourcePoint" />
            <mxPoint x="90" y="429.5" as="targetPoint" />
          </mxGeometry>
        </mxCell>
        <mxCell id="38" value="" style="ellipse;shape=endState;fillColor=#000000;strokeColor=#ff0000" parent="4" vertex="1">
          <mxGeometry x="130" y="500" width="30" height="30" as="geometry" />
        </mxCell>
        <mxCell id="39" value="" style="endArrow=open;strokeColor=#FF0000;endFill=1;rounded=0" parent="4" source="33" target="38" edge="1">
          <mxGeometry relative="1" as="geometry" />
        </mxCell>
        <mxCell id="20" value="" style="endArrow=open;strokeColor=#FF0000;endFill=1;rounded=0" parent="1" source="10" target="18" edge="1">
          <mxGeometry relative="1" as="geometry" />
        </mxCell>
      </root>
    </mxGraphModel>
  </diagram>
  <diagram id="Mfp5lATc7iv7IgcF1aNi" name="Page-2">
    <mxGraphModel dx="1038" dy="548" grid="1" gridSize="10" guides="1" tooltips="1" connect="1" arrows="1" fold="1" page="1" pageScale="1" pageWidth="827" pageHeight="1169" math="0" shadow="0">
      <root>
        <mxCell id="cDT3aV01rD_L_4h5Fw1i-0" />
        <mxCell id="cDT3aV01rD_L_4h5Fw1i-1" parent="cDT3aV01rD_L_4h5Fw1i-0" />
        <mxCell id="cDT3aV01rD_L_4h5Fw1i-4" style="edgeStyle=orthogonalEdgeStyle;rounded=0;orthogonalLoop=1;jettySize=auto;html=1;entryX=0.5;entryY=0;entryDx=0;entryDy=0;" parent="cDT3aV01rD_L_4h5Fw1i-1" source="cDT3aV01rD_L_4h5Fw1i-2" target="cDT3aV01rD_L_4h5Fw1i-3" edge="1">
          <mxGeometry relative="1" as="geometry" />
        </mxCell>
        <mxCell id="cDT3aV01rD_L_4h5Fw1i-6" style="edgeStyle=orthogonalEdgeStyle;rounded=0;orthogonalLoop=1;jettySize=auto;html=1;entryX=0.5;entryY=0;entryDx=0;entryDy=0;" parent="cDT3aV01rD_L_4h5Fw1i-1" target="cDT3aV01rD_L_4h5Fw1i-5" edge="1">
          <mxGeometry relative="1" as="geometry">
            <mxPoint x="380" y="130" as="sourcePoint" />
          </mxGeometry>
        </mxCell>
        <mxCell id="cDT3aV01rD_L_4h5Fw1i-2" value="スタート画面&lt;br&gt;名前を入力" style="rounded=1;whiteSpace=wrap;html=1;" parent="cDT3aV01rD_L_4h5Fw1i-1" vertex="1">
          <mxGeometry x="320" y="40" width="120" height="60" as="geometry" />
        </mxCell>
        <mxCell id="cDT3aV01rD_L_4h5Fw1i-12" style="edgeStyle=orthogonalEdgeStyle;rounded=0;orthogonalLoop=1;jettySize=auto;html=1;entryX=0.5;entryY=0;entryDx=0;entryDy=0;" parent="cDT3aV01rD_L_4h5Fw1i-1" source="cDT3aV01rD_L_4h5Fw1i-3" target="cDT3aV01rD_L_4h5Fw1i-11" edge="1">
          <mxGeometry relative="1" as="geometry" />
        </mxCell>
        <mxCell id="cDT3aV01rD_L_4h5Fw1i-3" value="参加者待ち" style="rounded=1;whiteSpace=wrap;html=1;" parent="cDT3aV01rD_L_4h5Fw1i-1" vertex="1">
          <mxGeometry x="200" y="170" width="120" height="60" as="geometry" />
        </mxCell>
        <mxCell id="cDT3aV01rD_L_4h5Fw1i-14" style="edgeStyle=orthogonalEdgeStyle;rounded=0;orthogonalLoop=1;jettySize=auto;html=1;" parent="cDT3aV01rD_L_4h5Fw1i-1" source="cDT3aV01rD_L_4h5Fw1i-5" target="cDT3aV01rD_L_4h5Fw1i-13" edge="1">
          <mxGeometry relative="1" as="geometry" />
        </mxCell>
        <mxCell id="cDT3aV01rD_L_4h5Fw1i-5" value="ホストを探す" style="rounded=1;whiteSpace=wrap;html=1;" parent="cDT3aV01rD_L_4h5Fw1i-1" vertex="1">
          <mxGeometry x="450" y="170" width="120" height="60" as="geometry" />
        </mxCell>
        <mxCell id="cDT3aV01rD_L_4h5Fw1i-7" value="ホストになる" style="text;html=1;strokeColor=none;fillColor=none;align=center;verticalAlign=middle;whiteSpace=wrap;rounded=0;" parent="cDT3aV01rD_L_4h5Fw1i-1" vertex="1">
          <mxGeometry x="190" y="80" width="80" height="40" as="geometry" />
        </mxCell>
        <mxCell id="cDT3aV01rD_L_4h5Fw1i-9" value="参加する" style="text;html=1;strokeColor=none;fillColor=none;align=center;verticalAlign=middle;whiteSpace=wrap;rounded=0;" parent="cDT3aV01rD_L_4h5Fw1i-1" vertex="1">
          <mxGeometry x="500" y="70" width="80" height="40" as="geometry" />
        </mxCell>
        <mxCell id="cDT3aV01rD_L_4h5Fw1i-16" style="edgeStyle=orthogonalEdgeStyle;rounded=0;orthogonalLoop=1;jettySize=auto;html=1;" parent="cDT3aV01rD_L_4h5Fw1i-1" source="cDT3aV01rD_L_4h5Fw1i-11" target="cDT3aV01rD_L_4h5Fw1i-15" edge="1">
          <mxGeometry relative="1" as="geometry" />
        </mxCell>
        <mxCell id="cDT3aV01rD_L_4h5Fw1i-11" value="参加者を確定" style="rounded=1;whiteSpace=wrap;html=1;" parent="cDT3aV01rD_L_4h5Fw1i-1" vertex="1">
          <mxGeometry x="200" y="300" width="120" height="60" as="geometry" />
        </mxCell>
        <mxCell id="cDT3aV01rD_L_4h5Fw1i-17" style="edgeStyle=orthogonalEdgeStyle;rounded=0;orthogonalLoop=1;jettySize=auto;html=1;entryX=0.5;entryY=0;entryDx=0;entryDy=0;" parent="cDT3aV01rD_L_4h5Fw1i-1" source="cDT3aV01rD_L_4h5Fw1i-13" target="cDT3aV01rD_L_4h5Fw1i-15" edge="1">
          <mxGeometry relative="1" as="geometry">
            <Array as="points">
              <mxPoint x="510" y="380" />
              <mxPoint x="380" y="380" />
            </Array>
          </mxGeometry>
        </mxCell>
        <mxCell id="cDT3aV01rD_L_4h5Fw1i-13" value="ホストを選択" style="rounded=1;whiteSpace=wrap;html=1;" parent="cDT3aV01rD_L_4h5Fw1i-1" vertex="1">
          <mxGeometry x="450" y="300" width="120" height="60" as="geometry" />
        </mxCell>
        <mxCell id="cDT3aV01rD_L_4h5Fw1i-19" style="edgeStyle=orthogonalEdgeStyle;rounded=0;orthogonalLoop=1;jettySize=auto;html=1;entryX=0.5;entryY=0;entryDx=0;entryDy=0;" parent="cDT3aV01rD_L_4h5Fw1i-1" source="cDT3aV01rD_L_4h5Fw1i-15" target="cDT3aV01rD_L_4h5Fw1i-18" edge="1">
          <mxGeometry relative="1" as="geometry" />
        </mxCell>
        <mxCell id="cDT3aV01rD_L_4h5Fw1i-15" value="スタート" style="rounded=1;whiteSpace=wrap;html=1;" parent="cDT3aV01rD_L_4h5Fw1i-1" vertex="1">
          <mxGeometry x="320" y="410" width="120" height="60" as="geometry" />
        </mxCell>
        <mxCell id="N900xps-qiwpy1kt57wK-15" style="edgeStyle=orthogonalEdgeStyle;rounded=0;orthogonalLoop=1;jettySize=auto;html=1;entryX=0.5;entryY=0;entryDx=0;entryDy=0;" edge="1" parent="cDT3aV01rD_L_4h5Fw1i-1" source="cDT3aV01rD_L_4h5Fw1i-18" target="N900xps-qiwpy1kt57wK-12">
          <mxGeometry relative="1" as="geometry">
            <Array as="points">
              <mxPoint x="380" y="630" />
              <mxPoint x="295" y="630" />
            </Array>
          </mxGeometry>
        </mxCell>
        <mxCell id="N900xps-qiwpy1kt57wK-18" style="edgeStyle=orthogonalEdgeStyle;rounded=0;orthogonalLoop=1;jettySize=auto;html=1;entryX=0.5;entryY=0;entryDx=0;entryDy=0;exitX=0.5;exitY=1;exitDx=0;exitDy=0;" edge="1" parent="cDT3aV01rD_L_4h5Fw1i-1" source="cDT3aV01rD_L_4h5Fw1i-18" target="N900xps-qiwpy1kt57wK-14">
          <mxGeometry relative="1" as="geometry">
            <Array as="points">
              <mxPoint x="380" y="630" />
              <mxPoint x="570" y="630" />
            </Array>
          </mxGeometry>
        </mxCell>
        <mxCell id="cDT3aV01rD_L_4h5Fw1i-18" value="質問者を参加者からランダムに指定" style="rounded=1;whiteSpace=wrap;html=1;" parent="cDT3aV01rD_L_4h5Fw1i-1" vertex="1">
          <mxGeometry x="320" y="555" width="120" height="60" as="geometry" />
        </mxCell>
        <mxCell id="cDT3aV01rD_L_4h5Fw1i-25" style="edgeStyle=orthogonalEdgeStyle;rounded=0;orthogonalLoop=1;jettySize=auto;html=1;entryX=0.5;entryY=0;entryDx=0;entryDy=0;exitX=0.5;exitY=1;exitDx=0;exitDy=0;" parent="cDT3aV01rD_L_4h5Fw1i-1" source="cDT3aV01rD_L_4h5Fw1i-20" target="cDT3aV01rD_L_4h5Fw1i-24" edge="1">
          <mxGeometry relative="1" as="geometry" />
        </mxCell>
        <mxCell id="cDT3aV01rD_L_4h5Fw1i-20" value="質問者が選択肢の中の質問を選ぶ" style="rounded=1;whiteSpace=wrap;html=1;" parent="cDT3aV01rD_L_4h5Fw1i-1" vertex="1">
          <mxGeometry x="155" y="754" width="120" height="60" as="geometry" />
        </mxCell>
        <mxCell id="cDT3aV01rD_L_4h5Fw1i-26" style="edgeStyle=orthogonalEdgeStyle;rounded=0;orthogonalLoop=1;jettySize=auto;html=1;entryX=0.5;entryY=0;entryDx=0;entryDy=0;exitX=0.5;exitY=1;exitDx=0;exitDy=0;" parent="cDT3aV01rD_L_4h5Fw1i-1" source="cDT3aV01rD_L_4h5Fw1i-22" target="cDT3aV01rD_L_4h5Fw1i-24" edge="1">
          <mxGeometry relative="1" as="geometry">
            <Array as="points">
              <mxPoint x="420" y="814" />
              <mxPoint x="420" y="844" />
              <mxPoint x="385" y="844" />
            </Array>
          </mxGeometry>
        </mxCell>
        <mxCell id="cDT3aV01rD_L_4h5Fw1i-22" value="質問者が質問を入力" style="rounded=1;whiteSpace=wrap;html=1;" parent="cDT3aV01rD_L_4h5Fw1i-1" vertex="1">
          <mxGeometry x="325" y="754" width="120" height="60" as="geometry" />
        </mxCell>
        <mxCell id="cDT3aV01rD_L_4h5Fw1i-28" style="edgeStyle=orthogonalEdgeStyle;rounded=0;orthogonalLoop=1;jettySize=auto;html=1;entryX=0.5;entryY=0;entryDx=0;entryDy=0;" parent="cDT3aV01rD_L_4h5Fw1i-1" source="cDT3aV01rD_L_4h5Fw1i-24" target="cDT3aV01rD_L_4h5Fw1i-27" edge="1">
          <mxGeometry relative="1" as="geometry" />
        </mxCell>
        <mxCell id="cDT3aV01rD_L_4h5Fw1i-24" value="ゲーム開始前に３秒間開始コメント表示" style="rounded=1;whiteSpace=wrap;html=1;" parent="cDT3aV01rD_L_4h5Fw1i-1" vertex="1">
          <mxGeometry x="325" y="884" width="120" height="60" as="geometry" />
        </mxCell>
        <mxCell id="cDT3aV01rD_L_4h5Fw1i-30" style="edgeStyle=orthogonalEdgeStyle;rounded=0;orthogonalLoop=1;jettySize=auto;html=1;" parent="cDT3aV01rD_L_4h5Fw1i-1" source="cDT3aV01rD_L_4h5Fw1i-27" target="cDT3aV01rD_L_4h5Fw1i-29" edge="1">
          <mxGeometry relative="1" as="geometry" />
        </mxCell>
        <mxCell id="cDT3aV01rD_L_4h5Fw1i-27" value="質問内容が全員の画面に表示&lt;br&gt;振るまでのカウントがされる（３秒）" style="rounded=1;whiteSpace=wrap;html=1;" parent="cDT3aV01rD_L_4h5Fw1i-1" vertex="1">
          <mxGeometry x="325" y="1014" width="120" height="60" as="geometry" />
        </mxCell>
        <mxCell id="cDT3aV01rD_L_4h5Fw1i-32" style="edgeStyle=orthogonalEdgeStyle;rounded=0;orthogonalLoop=1;jettySize=auto;html=1;entryX=0.5;entryY=0;entryDx=0;entryDy=0;" parent="cDT3aV01rD_L_4h5Fw1i-1" source="cDT3aV01rD_L_4h5Fw1i-29" target="cDT3aV01rD_L_4h5Fw1i-31" edge="1">
          <mxGeometry relative="1" as="geometry" />
        </mxCell>
        <mxCell id="cDT3aV01rD_L_4h5Fw1i-29" value="スマホを１０回振る&lt;br&gt;（３０秒カウント）&lt;br&gt;振る残りの回数を表示する" style="rounded=1;whiteSpace=wrap;html=1;" parent="cDT3aV01rD_L_4h5Fw1i-1" vertex="1">
          <mxGeometry x="325" y="1154" width="120" height="60" as="geometry" />
        </mxCell>
        <mxCell id="cDT3aV01rD_L_4h5Fw1i-34" style="edgeStyle=orthogonalEdgeStyle;rounded=0;orthogonalLoop=1;jettySize=auto;html=1;entryX=0.5;entryY=0;entryDx=0;entryDy=0;" parent="cDT3aV01rD_L_4h5Fw1i-1" source="cDT3aV01rD_L_4h5Fw1i-31" target="cDT3aV01rD_L_4h5Fw1i-33" edge="1">
          <mxGeometry relative="1" as="geometry" />
        </mxCell>
        <mxCell id="cDT3aV01rD_L_4h5Fw1i-31" value="タイムアップ表示" style="rounded=1;whiteSpace=wrap;html=1;" parent="cDT3aV01rD_L_4h5Fw1i-1" vertex="1">
          <mxGeometry x="325" y="1274" width="120" height="60" as="geometry" />
        </mxCell>
        <mxCell id="N900xps-qiwpy1kt57wK-2" style="edgeStyle=orthogonalEdgeStyle;rounded=0;orthogonalLoop=1;jettySize=auto;html=1;" edge="1" parent="cDT3aV01rD_L_4h5Fw1i-1" source="cDT3aV01rD_L_4h5Fw1i-33" target="N900xps-qiwpy1kt57wK-0">
          <mxGeometry relative="1" as="geometry" />
        </mxCell>
        <mxCell id="N900xps-qiwpy1kt57wK-3" style="edgeStyle=orthogonalEdgeStyle;rounded=0;orthogonalLoop=1;jettySize=auto;html=1;entryX=0.5;entryY=0;entryDx=0;entryDy=0;" edge="1" parent="cDT3aV01rD_L_4h5Fw1i-1" source="cDT3aV01rD_L_4h5Fw1i-33" target="N900xps-qiwpy1kt57wK-1">
          <mxGeometry relative="1" as="geometry" />
        </mxCell>
        <mxCell id="cDT3aV01rD_L_4h5Fw1i-33" value="質問と回答者表示" style="rounded=1;whiteSpace=wrap;html=1;" parent="cDT3aV01rD_L_4h5Fw1i-1" vertex="1">
          <mxGeometry x="325" y="1384" width="120" height="60" as="geometry" />
        </mxCell>
        <mxCell id="N900xps-qiwpy1kt57wK-7" style="edgeStyle=orthogonalEdgeStyle;rounded=0;orthogonalLoop=1;jettySize=auto;html=1;entryX=0;entryY=0.5;entryDx=0;entryDy=0;" edge="1" parent="cDT3aV01rD_L_4h5Fw1i-1" source="cDT3aV01rD_L_4h5Fw1i-35" target="cDT3aV01rD_L_4h5Fw1i-18">
          <mxGeometry relative="1" as="geometry">
            <Array as="points">
              <mxPoint x="80" y="1510" />
              <mxPoint x="80" y="585" />
            </Array>
          </mxGeometry>
        </mxCell>
        <mxCell id="N900xps-qiwpy1kt57wK-9" style="edgeStyle=orthogonalEdgeStyle;rounded=0;orthogonalLoop=1;jettySize=auto;html=1;entryX=0.5;entryY=0;entryDx=0;entryDy=0;" edge="1" parent="cDT3aV01rD_L_4h5Fw1i-1" source="cDT3aV01rD_L_4h5Fw1i-35" target="N900xps-qiwpy1kt57wK-6">
          <mxGeometry relative="1" as="geometry" />
        </mxCell>
        <mxCell id="cDT3aV01rD_L_4h5Fw1i-35" value="「次のゲーム」を押す" style="rounded=1;whiteSpace=wrap;html=1;" parent="cDT3aV01rD_L_4h5Fw1i-1" vertex="1">
          <mxGeometry x="325" y="1564" width="120" height="60" as="geometry" />
        </mxCell>
        <mxCell id="N900xps-qiwpy1kt57wK-4" style="edgeStyle=orthogonalEdgeStyle;rounded=0;orthogonalLoop=1;jettySize=auto;html=1;entryX=0.5;entryY=0;entryDx=0;entryDy=0;" edge="1" parent="cDT3aV01rD_L_4h5Fw1i-1" source="N900xps-qiwpy1kt57wK-0" target="cDT3aV01rD_L_4h5Fw1i-35">
          <mxGeometry relative="1" as="geometry" />
        </mxCell>
        <mxCell id="N900xps-qiwpy1kt57wK-0" value="１０回振るのが一番遅かった人が回答者&lt;br&gt;ノルマはそのまま&lt;br&gt;（１０回の場合は現状維持&lt;br&gt;１２回以上は－２回）" style="rounded=1;whiteSpace=wrap;html=1;" vertex="1" parent="cDT3aV01rD_L_4h5Fw1i-1">
          <mxGeometry x="175" y="1464" width="120" height="106" as="geometry" />
        </mxCell>
        <mxCell id="N900xps-qiwpy1kt57wK-5" style="edgeStyle=orthogonalEdgeStyle;rounded=0;orthogonalLoop=1;jettySize=auto;html=1;" edge="1" parent="cDT3aV01rD_L_4h5Fw1i-1" source="N900xps-qiwpy1kt57wK-1">
          <mxGeometry relative="1" as="geometry">
            <mxPoint x="385" y="1564" as="targetPoint" />
          </mxGeometry>
        </mxCell>
        <mxCell id="N900xps-qiwpy1kt57wK-1" value="そのほかはノルマが（１番早かった人　＋３回&lt;br&gt;そのほか　現状維持）" style="rounded=1;whiteSpace=wrap;html=1;" vertex="1" parent="cDT3aV01rD_L_4h5Fw1i-1">
          <mxGeometry x="485" y="1464" width="120" height="86" as="geometry" />
        </mxCell>
        <mxCell id="N900xps-qiwpy1kt57wK-6" value="スタート画面" style="rounded=1;whiteSpace=wrap;html=1;" vertex="1" parent="cDT3aV01rD_L_4h5Fw1i-1">
          <mxGeometry x="325" y="1694" width="120" height="60" as="geometry" />
        </mxCell>
        <mxCell id="N900xps-qiwpy1kt57wK-10" value="YES" style="text;html=1;strokeColor=none;fillColor=none;align=center;verticalAlign=middle;whiteSpace=wrap;rounded=0;" vertex="1" parent="cDT3aV01rD_L_4h5Fw1i-1">
          <mxGeometry x="275" y="1564" width="40" height="20" as="geometry" />
        </mxCell>
        <mxCell id="N900xps-qiwpy1kt57wK-11" value="NO" style="text;html=1;strokeColor=none;fillColor=none;align=center;verticalAlign=middle;whiteSpace=wrap;rounded=0;" vertex="1" parent="cDT3aV01rD_L_4h5Fw1i-1">
          <mxGeometry x="395" y="1634" width="40" height="20" as="geometry" />
        </mxCell>
        <mxCell id="N900xps-qiwpy1kt57wK-20" style="edgeStyle=orthogonalEdgeStyle;rounded=0;orthogonalLoop=1;jettySize=auto;html=1;entryX=0.5;entryY=0;entryDx=0;entryDy=0;" edge="1" parent="cDT3aV01rD_L_4h5Fw1i-1" source="N900xps-qiwpy1kt57wK-12" target="cDT3aV01rD_L_4h5Fw1i-20">
          <mxGeometry relative="1" as="geometry" />
        </mxCell>
        <mxCell id="N900xps-qiwpy1kt57wK-21" style="edgeStyle=orthogonalEdgeStyle;rounded=0;orthogonalLoop=1;jettySize=auto;html=1;entryX=0.5;entryY=0;entryDx=0;entryDy=0;" edge="1" parent="cDT3aV01rD_L_4h5Fw1i-1" source="N900xps-qiwpy1kt57wK-12" target="cDT3aV01rD_L_4h5Fw1i-22">
          <mxGeometry relative="1" as="geometry" />
        </mxCell>
        <mxCell id="N900xps-qiwpy1kt57wK-12" value="質問形式を選択" style="rounded=1;whiteSpace=wrap;html=1;" vertex="1" parent="cDT3aV01rD_L_4h5Fw1i-1">
          <mxGeometry x="235" y="650" width="120" height="60" as="geometry" />
        </mxCell>
        <mxCell id="N900xps-qiwpy1kt57wK-22" style="edgeStyle=orthogonalEdgeStyle;rounded=0;orthogonalLoop=1;jettySize=auto;html=1;entryX=0.5;entryY=0;entryDx=0;entryDy=0;" edge="1" parent="cDT3aV01rD_L_4h5Fw1i-1" source="N900xps-qiwpy1kt57wK-14" target="cDT3aV01rD_L_4h5Fw1i-24">
          <mxGeometry relative="1" as="geometry">
            <Array as="points">
              <mxPoint x="580" y="884" />
            </Array>
          </mxGeometry>
        </mxCell>
        <mxCell id="N900xps-qiwpy1kt57wK-14" value="待機状態" style="rounded=1;whiteSpace=wrap;html=1;" vertex="1" parent="cDT3aV01rD_L_4h5Fw1i-1">
          <mxGeometry x="510" y="650" width="120" height="60" as="geometry" />
        </mxCell>
        <mxCell id="N900xps-qiwpy1kt57wK-17" value="質問者" style="text;html=1;strokeColor=none;fillColor=none;align=center;verticalAlign=middle;whiteSpace=wrap;rounded=0;" vertex="1" parent="cDT3aV01rD_L_4h5Fw1i-1">
          <mxGeometry x="240" y="600" width="40" height="20" as="geometry" />
        </mxCell>
        <mxCell id="N900xps-qiwpy1kt57wK-19" value="回答者" style="text;html=1;strokeColor=none;fillColor=none;align=center;verticalAlign=middle;whiteSpace=wrap;rounded=0;" vertex="1" parent="cDT3aV01rD_L_4h5Fw1i-1">
          <mxGeometry x="460" y="600" width="40" height="20" as="geometry" />
        </mxCell>
        <mxCell id="N900xps-qiwpy1kt57wK-23" value="回答者" style="text;html=1;strokeColor=none;fillColor=none;align=center;verticalAlign=middle;whiteSpace=wrap;rounded=0;" vertex="1" parent="cDT3aV01rD_L_4h5Fw1i-1">
          <mxGeometry x="270" y="1384" width="40" height="20" as="geometry" />
        </mxCell>
        <mxCell id="N900xps-qiwpy1kt57wK-24" value="その他" style="text;html=1;strokeColor=none;fillColor=none;align=center;verticalAlign=middle;whiteSpace=wrap;rounded=0;" vertex="1" parent="cDT3aV01rD_L_4h5Fw1i-1">
          <mxGeometry x="480" y="1384" width="40" height="20" as="geometry" />
        </mxCell>
      </root>
    </mxGraphModel>
  </diagram>
</mxfile>
